<?xml version="1.0" standalone="yes"?>

<svg version="1.1" viewBox="0.0 0.0 208.0 60.0" fill="none" stroke="none" stroke-linecap="square" stroke-miterlimit="10" xmlns="http://www.w3.org/2000/svg" xmlns:xlink="http://www.w3.org/1999/xlink"><clipPath id="p.0"><path d="m0 0l208.0 0l0 60.0l-208.0 0l0 -60.0z" clip-rule="nonzero"></path></clipPath><g clip-path="url(#p.0)"><path fill="#000000" fill-opacity="0.0" d="m0 0l208.0 0l0 60.0l-208.0 0z" fill-rule="nonzero"></path><path fill="#000000" fill-opacity="0.0" d="m32.259842 7.2440944l164.25197 0l0 45.51181l-164.25197 0z" fill-rule="nonzero"></path><path fill="#434343" d="m52.215836 57.875618l0 -54.125q0 -0.828125 0.578125 -1.40625q0.59375 -0.5781249 1.421875 -0.5781249l12.953125 0q5.96875 0 10.203125 4.234375q4.234375 4.2187495 4.234375 10.65625q0 6.4375 -5.5625 10.921875q4.984375 1.734375 8.171875 6.015625q3.203125 4.265625 3.203125 9.671875q0 6.875 -4.859375 11.734375q-4.859375 4.859375 -11.75 4.859375l-16.671875 0q-0.828125 0 -1.375 -0.578125q-0.546875 -0.578125 -0.546875 -1.40625zm4.078125 -2.078125l14.515625 0q5.15625 0 8.796875 -3.65625q3.65625 -3.65625 3.734375 -8.875q-0.078125 -5.15625 -3.734375 -8.84375q-3.640625 -3.703125 -8.796875 -3.703125l-14.515625 0l0 25.078125zm0 -29.21875l10.875 0q4.3125 0 7.34375 -3.03125q3.03125 -3.03125 3.03125 -7.296875q0 -4.281251 -3.03125 -7.343751q-3.03125 -3.0781245 -7.34375 -3.0781245l-10.875 0l0 20.75zm45.613373 31.296875l0 -54.125q0 -0.828125 0.578125 -1.40625q0.578125 -0.5781249 1.40625 -0.5781249q0.828125 0 1.453125 0.5781249q0.625 0.578125 0.625 1.40625l0 54.125q0 0.828125 -0.625 1.40625q-0.625 0.578125 -1.453125 0.578125q-0.828125 0 -1.40625 -0.578125q-0.578125 -0.578125 -0.578125 -1.40625zm67.61638 -24.15625l-15.859375 0q-0.90625 0 -1.484375 -0.578125q-0.578125 -0.59375 -0.578125 -1.453125q0 -0.875 0.578125 -1.453125q0.578125 -0.59375 1.484375 -0.59375l18.1875 0q0.75 0.09375 1.28125 0.671875q0.546875 0.578125 0.546875 1.40625l0 20.25q-0.171875 1.0 -0.75 1.5q-8.046875 6.390625 -18.765625 6.390625q-12.53125 -0.078125 -21.375 -8.671875q-8.828125 -8.59375 -8.828125 -20.796875q0 -12.203125 8.828125 -20.828125q8.84375 -8.640625 21.375 -8.640625q10.375 0 18.84375 6.5625q0.578125 0.421875 0.65625 1.2968745q0.09375 0.859375 -0.40625 1.53125q-1.15625 1.484375 -2.90625 0.328125q-6.890625 -5.6406245 -16.1875 -5.6406245q-10.875 0 -18.515625 7.4374995q-7.625 7.421876 -7.625 17.96875q0 10.53125 7.625 17.96875q7.640625 7.421875 18.515625 7.421875q8.546875 0 15.359375 -4.984375l0 -17.09375z" fill-rule="nonzero"></path><path fill="#000000" fill-opacity="0.0" d="m18.664042 20.181103l57.826775 0l0 16.88189l-57.826775 0z" fill-rule="nonzero"></path><path fill="#ffffff" d="m28.5667 17.135796l38.02145 0l0 22.390625l-38.02145 0l0 -22.390625z" fill-rule="nonzero"></path><path fill="#0198ad" d="m31.832325 21.542046l0 14.0l-1.6875 0l0 -14.0l1.6875 0zm4.776001 4.375l0 9.625l-1.6875 0l0 -9.625l1.6875 0zm0.375 -3.015625q0 0.25 -0.09375 0.46875q-0.09375 0.203125 -0.265625 0.375q-0.171875 0.15625 -0.390625 0.25q-0.21875 0.09375 -0.453125 0.09375q-0.25 0 -0.46875 -0.09375q-0.21875 -0.09375 -0.390625 -0.25q-0.15625 -0.171875 -0.25 -0.375q-0.09375 -0.21875 -0.09375 -0.46875q0 -0.25 0.09375 -0.46875q0.09375 -0.234375 0.25 -0.390625q0.171875 -0.171875 0.390625 -0.265625q0.21875 -0.09375 0.46875 -0.09375q0.234375 0 0.453125 0.09375q0.21875 0.09375 0.390625 0.265625q0.171875 0.15625 0.265625 0.390625q0.09375 0.21875 0.09375 0.46875zm5.432251 12.796875q-1.140625 0 -1.75 -0.640625q-0.609375 -0.640625 -0.609375 -1.828125l0 -5.890625l-1.15625 0q-0.15625 0 -0.265625 -0.09375q-0.09375 -0.09375 -0.09375 -0.28125l0 -0.671875l1.578125 -0.203125l0.390625 -2.96875q0.015625 -0.140625 0.109375 -0.234375q0.109375 -0.09375 0.28125 -0.09375l0.84375 0l0 3.3125l2.765625 0l0 1.234375l-2.765625 0l0 5.765625q0 0.609375 0.296875 0.90625q0.296875 0.296875 0.765625 0.296875q0.265625 0 0.453125 -0.0625q0.203125 -0.078125 0.34375 -0.15625q0.140625 -0.09375 0.234375 -0.15625q0.109375 -0.078125 0.1875 -0.078125q0.125 0 0.234375 0.15625l0.484375 0.8125q-0.4375 0.40625 -1.0625 0.640625q-0.609375 0.234375 -1.265625 0.234375zm6.958786 0q-1.140625 0 -1.75 -0.640625q-0.609375 -0.640625 -0.609375 -1.828125l0 -5.890625l-1.15625 0q-0.15625 0 -0.265625 -0.09375q-0.09375 -0.09375 -0.09375 -0.28125l0 -0.671875l1.578125 -0.203125l0.390625 -2.96875q0.015625 -0.140625 0.109375 -0.234375q0.109375 -0.09375 0.28125 -0.09375l0.84375 0l0 3.3125l2.765625 0l0 1.234375l-2.765625 0l0 5.765625q0 0.609375 0.296875 0.90625q0.296875 0.296875 0.765625 0.296875q0.265625 0 0.453125 -0.0625q0.203125 -0.078125 0.34375 -0.15625q0.140625 -0.09375 0.234375 -0.15625q0.109375 -0.078125 0.1875 -0.078125q0.125 0 0.234375 0.15625l0.484375 0.8125q-0.4375 0.40625 -1.0625 0.640625q-0.609375 0.234375 -1.265625 0.234375zm5.927536 -14.15625l0 14.0l-1.6875 0l0 -14.0l1.6875 0zm6.713501 4.21875q0.859375 0 1.59375 0.296875q0.7343712 0.28125 1.2656212 0.828125q0.53125 0.546875 0.828125 1.359375q0.296875 0.796875 0.296875 1.828125q0 0.390625 -0.09375 0.53125q-0.078125 0.125 -0.3125 0.125l-6.406246 0q0.015625 0.921875 0.234375 1.59375q0.234375 0.671875 0.625 1.125q0.40625 0.453125 0.953125 0.671875q0.5625 0.21875 1.25 0.21875q0.640625 0 1.09375 -0.140625q0.453125 -0.140625 0.7812462 -0.3125q0.34375 -0.171875 0.5625 -0.3125q0.234375 -0.15625 0.390625 -0.15625q0.203125 0 0.328125 0.15625l0.46875 0.625q-0.3125 0.375 -0.75 0.65625q-0.4375 0.28125 -0.9375 0.46875q-0.4999962 0.171875 -1.0312462 0.265625q-0.53125 0.09375 -1.046875 0.09375q-1.0 0 -1.84375 -0.34375q-0.84375 -0.34375 -1.453125 -0.984375q-0.609375 -0.65625 -0.953125 -1.609375q-0.34375 -0.96875 -0.34375 -2.203125q0 -1.015625 0.3125 -1.890625q0.3125 -0.875 0.890625 -1.515625q0.578125 -0.640625 1.40625 -1.0q0.84375 -0.375 1.890625 -0.375zm0.03125 1.25q-1.21875 0 -1.921875 0.71875q-0.703125 0.703125 -0.875 1.953125l5.234371 0q0 -0.59375 -0.171875 -1.078125q-0.15625 -0.484375 -0.4687462 -0.84375q-0.3125 -0.359375 -0.765625 -0.546875q-0.453125 -0.203125 -1.03125 -0.203125z" fill-rule="nonzero"></path></g></svg>

